<svg xmlns="http://www.w3.org/2000/svg" width="30" height="67" viewBox="0 0 30 67" fill="none">
<path d="M14.9961 66.2277C14.7576 66.2292 14.526 66.1482 14.3405 65.9983L4.50713 58.0578C4.39952 57.9717 4.30992 57.8653 4.24344 57.7446C4.17697 57.6239 4.13492 57.4912 4.1197 57.3543C4.10448 57.2173 4.11639 57.0787 4.15474 56.9463C4.1931 56.8139 4.25715 56.6904 4.34324 56.5828C4.42933 56.4752 4.53577 56.3856 4.65649 56.3191C4.7772 56.2527 4.90983 56.2106 5.0468 56.1954C5.18377 56.1802 5.32239 56.1921 5.45475 56.2304C5.58712 56.2688 5.71063 56.3328 5.81825 56.4189L14.9961 63.8513L24.1575 56.4353C24.3748 56.2625 24.6519 56.1832 24.9277 56.2147C25.2036 56.2462 25.4556 56.386 25.6284 56.6033C25.8012 56.8206 25.8806 57.0977 25.849 57.3735C25.8175 57.6494 25.6777 57.9014 25.4604 58.0742L15.627 66.0147C15.446 66.1534 15.2241 66.2283 14.9961 66.2277Z" fill="white"/>
<path d="M14.9959 47.9295C11.0201 47.9252 7.20832 46.3439 4.39699 43.5325C1.58565 40.7212 0.00433806 36.9095 0 32.9336V14.9959C8.38124e-08 11.0187 1.57992 7.20448 4.3922 4.3922C7.20447 1.57992 11.0187 0 14.9959 0C18.9731 0 22.7873 1.57992 25.5996 4.3922C28.4119 7.20448 29.9918 11.0187 29.9918 14.9959V32.9336C29.9875 36.9095 28.4061 40.7212 25.5948 43.5325C22.7835 46.3439 18.9717 47.9252 14.9959 47.9295ZM14.9959 2.0814C11.5721 2.08574 8.28976 3.44776 5.86876 5.86876C3.44776 8.28976 2.08574 11.5721 2.0814 14.9959V32.9336C2.0814 36.3588 3.44203 39.6436 5.86397 42.0656C8.28591 44.4875 11.5708 45.8481 14.9959 45.8481C18.421 45.8481 21.7059 44.4875 24.1278 42.0656C26.5498 39.6436 27.9104 36.3588 27.9104 32.9336V14.9959C27.9061 11.5721 26.544 8.28976 24.123 5.86876C21.702 3.44776 18.4197 2.08574 14.9959 2.0814Z" fill="white"/>
<path d="M14.9959 18.1671C14.4483 18.1671 13.923 17.9496 13.5358 17.5623C13.1485 17.175 12.9309 16.6498 12.9309 16.1021V11.1854C12.9266 10.9115 12.9768 10.6395 13.0786 10.3851C13.1804 10.1308 13.3318 9.89925 13.524 9.70401C13.7162 9.50878 13.9453 9.35373 14.198 9.24791C14.4507 9.14209 14.722 9.08761 14.9959 9.08765C15.2678 9.08764 15.537 9.14133 15.7881 9.24562C16.0391 9.3499 16.2672 9.50275 16.459 9.69537C16.6509 9.88799 16.8028 10.1166 16.9061 10.3681C17.0094 10.6196 17.062 10.889 17.0609 11.1608V16.0775C17.0642 16.3508 17.0132 16.622 16.9109 16.8753C16.8085 17.1287 16.657 17.3593 16.4649 17.5536C16.2728 17.748 16.0441 17.9023 15.7919 18.0076C15.5397 18.1129 15.2692 18.1671 14.9959 18.1671Z" fill="white"/>
</svg>